<mxfile host="app.diagrams.net" agent="Mozilla/5.0 (Windows NT 10.0; Win64; x64) AppleWebKit/537.36 (KHTML, like Gecko) Chrome/130.0.0.0 Safari/537.36 Edg/130.0.0.0" version="24.8.4">
  <diagram name="PÃ¡gina-1" id="ZLfOOwjbxrJCBjGlawMk">
    <mxGraphModel dx="1869" dy="1708" grid="1" gridSize="10" guides="1" tooltips="1" connect="1" arrows="1" fold="1" page="1" pageScale="1" pageWidth="827" pageHeight="1169" math="0" shadow="0">
      <root>
        <mxCell id="0" />
        <mxCell id="1" parent="0" />
        <mxCell id="36kNRSXU-eASTzBY41m4-4" value="" style="group" vertex="1" connectable="0" parent="1">
          <mxGeometry x="260" y="200" width="130" height="140" as="geometry" />
        </mxCell>
        <mxCell id="36kNRSXU-eASTzBY41m4-2" value="Comanda" style="rounded=0;whiteSpace=wrap;html=1;" vertex="1" parent="36kNRSXU-eASTzBY41m4-4">
          <mxGeometry width="130" height="40" as="geometry" />
        </mxCell>
        <mxCell id="36kNRSXU-eASTzBY41m4-3" value="" style="rounded=0;whiteSpace=wrap;html=1;" vertex="1" parent="36kNRSXU-eASTzBY41m4-4">
          <mxGeometry y="40" width="130" height="100" as="geometry" />
        </mxCell>
        <mxCell id="36kNRSXU-eASTzBY41m4-5" value="" style="group" vertex="1" connectable="0" parent="1">
          <mxGeometry x="460" y="200" width="130" height="140" as="geometry" />
        </mxCell>
        <mxCell id="36kNRSXU-eASTzBY41m4-6" value="Productos" style="rounded=0;whiteSpace=wrap;html=1;" vertex="1" parent="36kNRSXU-eASTzBY41m4-5">
          <mxGeometry width="130" height="40" as="geometry" />
        </mxCell>
        <mxCell id="36kNRSXU-eASTzBY41m4-7" value="" style="rounded=0;whiteSpace=wrap;html=1;" vertex="1" parent="36kNRSXU-eASTzBY41m4-5">
          <mxGeometry y="40" width="130" height="100" as="geometry" />
        </mxCell>
        <mxCell id="36kNRSXU-eASTzBY41m4-8" value="" style="group" vertex="1" connectable="0" parent="1">
          <mxGeometry x="-10" y="210" width="130" height="140" as="geometry" />
        </mxCell>
        <mxCell id="36kNRSXU-eASTzBY41m4-9" value="Mesas" style="rounded=0;whiteSpace=wrap;html=1;" vertex="1" parent="36kNRSXU-eASTzBY41m4-8">
          <mxGeometry width="130" height="40" as="geometry" />
        </mxCell>
        <mxCell id="36kNRSXU-eASTzBY41m4-10" value="" style="rounded=0;whiteSpace=wrap;html=1;" vertex="1" parent="36kNRSXU-eASTzBY41m4-8">
          <mxGeometry y="40" width="130" height="100" as="geometry" />
        </mxCell>
        <mxCell id="36kNRSXU-eASTzBY41m4-11" value="" style="group" vertex="1" connectable="0" parent="1">
          <mxGeometry x="260" y="430" width="130" height="140" as="geometry" />
        </mxCell>
        <mxCell id="36kNRSXU-eASTzBY41m4-12" value="Usuarios" style="rounded=0;whiteSpace=wrap;html=1;" vertex="1" parent="36kNRSXU-eASTzBY41m4-11">
          <mxGeometry width="130" height="40" as="geometry" />
        </mxCell>
        <mxCell id="36kNRSXU-eASTzBY41m4-13" value="" style="rounded=0;whiteSpace=wrap;html=1;" vertex="1" parent="36kNRSXU-eASTzBY41m4-11">
          <mxGeometry y="40" width="130" height="100" as="geometry" />
        </mxCell>
        <mxCell id="36kNRSXU-eASTzBY41m4-14" value="" style="group" vertex="1" connectable="0" parent="1">
          <mxGeometry x="500" y="430" width="130" height="140" as="geometry" />
        </mxCell>
        <mxCell id="36kNRSXU-eASTzBY41m4-15" value="Cargos" style="rounded=0;whiteSpace=wrap;html=1;" vertex="1" parent="36kNRSXU-eASTzBY41m4-14">
          <mxGeometry width="130" height="40" as="geometry" />
        </mxCell>
        <mxCell id="36kNRSXU-eASTzBY41m4-16" value="" style="rounded=0;whiteSpace=wrap;html=1;" vertex="1" parent="36kNRSXU-eASTzBY41m4-14">
          <mxGeometry y="40" width="130" height="100" as="geometry" />
        </mxCell>
        <mxCell id="36kNRSXU-eASTzBY41m4-17" value="" style="group" vertex="1" connectable="0" parent="1">
          <mxGeometry x="460" y="-60" width="130" height="140" as="geometry" />
        </mxCell>
        <mxCell id="36kNRSXU-eASTzBY41m4-18" value="Productos_Comanda" style="rounded=0;whiteSpace=wrap;html=1;" vertex="1" parent="36kNRSXU-eASTzBY41m4-17">
          <mxGeometry width="130" height="40" as="geometry" />
        </mxCell>
        <mxCell id="36kNRSXU-eASTzBY41m4-19" value="id&lt;br&gt;idComanda&lt;br&gt;&lt;div&gt;IdProducto&lt;/div&gt;&lt;div&gt;Cantidad&lt;/div&gt;&lt;div&gt;Comentario&lt;/div&gt;&lt;div&gt;&lt;br&gt;&lt;/div&gt;" style="rounded=0;whiteSpace=wrap;html=1;" vertex="1" parent="36kNRSXU-eASTzBY41m4-17">
          <mxGeometry y="40" width="130" height="100" as="geometry" />
        </mxCell>
        <mxCell id="36kNRSXU-eASTzBY41m4-20" value="" style="group" vertex="1" connectable="0" parent="1">
          <mxGeometry x="810" y="200" width="130" height="140" as="geometry" />
        </mxCell>
        <mxCell id="36kNRSXU-eASTzBY41m4-21" value="Categorias" style="rounded=0;whiteSpace=wrap;html=1;" vertex="1" parent="36kNRSXU-eASTzBY41m4-20">
          <mxGeometry width="130" height="40" as="geometry" />
        </mxCell>
        <mxCell id="36kNRSXU-eASTzBY41m4-22" value="" style="rounded=0;whiteSpace=wrap;html=1;" vertex="1" parent="36kNRSXU-eASTzBY41m4-20">
          <mxGeometry y="40" width="130" height="100" as="geometry" />
        </mxCell>
        <mxCell id="36kNRSXU-eASTzBY41m4-23" style="edgeStyle=orthogonalEdgeStyle;rounded=0;orthogonalLoop=1;jettySize=auto;html=1;" edge="1" parent="1" source="36kNRSXU-eASTzBY41m4-7" target="36kNRSXU-eASTzBY41m4-22">
          <mxGeometry relative="1" as="geometry" />
        </mxCell>
        <mxCell id="36kNRSXU-eASTzBY41m4-24" value="Producto tiene una" style="edgeLabel;html=1;align=center;verticalAlign=middle;resizable=0;points=[];" vertex="1" connectable="0" parent="36kNRSXU-eASTzBY41m4-23">
          <mxGeometry x="-0.12" y="-4" relative="1" as="geometry">
            <mxPoint as="offset" />
          </mxGeometry>
        </mxCell>
        <mxCell id="36kNRSXU-eASTzBY41m4-26" value="Tiene varios" style="html=1;verticalAlign=bottom;startArrow=circle;startFill=1;endArrow=open;startSize=6;endSize=8;curved=0;rounded=0;exitX=0.5;exitY=1;exitDx=0;exitDy=0;entryX=0.5;entryY=0;entryDx=0;entryDy=0;" edge="1" parent="1" source="36kNRSXU-eASTzBY41m4-19" target="36kNRSXU-eASTzBY41m4-6">
          <mxGeometry width="80" relative="1" as="geometry">
            <mxPoint x="370" y="90" as="sourcePoint" />
            <mxPoint x="450" y="90" as="targetPoint" />
          </mxGeometry>
        </mxCell>
        <mxCell id="36kNRSXU-eASTzBY41m4-27" value="Tiene varios" style="html=1;verticalAlign=bottom;startArrow=circle;startFill=1;endArrow=open;startSize=6;endSize=8;curved=0;rounded=0;exitX=0.335;exitY=0.005;exitDx=0;exitDy=0;entryX=-0.003;entryY=0.178;entryDx=0;entryDy=0;exitPerimeter=0;entryPerimeter=0;" edge="1" parent="1" source="36kNRSXU-eASTzBY41m4-2" target="36kNRSXU-eASTzBY41m4-19">
          <mxGeometry width="80" relative="1" as="geometry">
            <mxPoint x="315" y="200" as="sourcePoint" />
            <mxPoint x="450" y="5" as="targetPoint" />
            <Array as="points">
              <mxPoint x="310" y="-2" />
            </Array>
          </mxGeometry>
        </mxCell>
        <mxCell id="36kNRSXU-eASTzBY41m4-28" style="edgeStyle=orthogonalEdgeStyle;rounded=0;orthogonalLoop=1;jettySize=auto;html=1;exitX=0;exitY=0.5;exitDx=0;exitDy=0;entryX=0.75;entryY=0;entryDx=0;entryDy=0;" edge="1" parent="1" source="36kNRSXU-eASTzBY41m4-19" target="36kNRSXU-eASTzBY41m4-2">
          <mxGeometry relative="1" as="geometry" />
        </mxCell>
        <mxCell id="36kNRSXU-eASTzBY41m4-29" value="Tiene una" style="edgeLabel;html=1;align=center;verticalAlign=middle;resizable=0;points=[];" vertex="1" connectable="0" parent="36kNRSXU-eASTzBY41m4-28">
          <mxGeometry x="0.225" y="1" relative="1" as="geometry">
            <mxPoint as="offset" />
          </mxGeometry>
        </mxCell>
        <mxCell id="36kNRSXU-eASTzBY41m4-30" style="edgeStyle=orthogonalEdgeStyle;rounded=0;orthogonalLoop=1;jettySize=auto;html=1;entryX=0.997;entryY=0.39;entryDx=0;entryDy=0;entryPerimeter=0;" edge="1" parent="1" source="36kNRSXU-eASTzBY41m4-3" target="36kNRSXU-eASTzBY41m4-10">
          <mxGeometry relative="1" as="geometry" />
        </mxCell>
        <mxCell id="36kNRSXU-eASTzBY41m4-31" value="Tiene una" style="edgeLabel;html=1;align=center;verticalAlign=middle;resizable=0;points=[];" vertex="1" connectable="0" parent="36kNRSXU-eASTzBY41m4-30">
          <mxGeometry x="0.2225" y="2" relative="1" as="geometry">
            <mxPoint as="offset" />
          </mxGeometry>
        </mxCell>
        <mxCell id="36kNRSXU-eASTzBY41m4-32" style="edgeStyle=orthogonalEdgeStyle;rounded=0;orthogonalLoop=1;jettySize=auto;html=1;entryX=0.5;entryY=0;entryDx=0;entryDy=0;" edge="1" parent="1" source="36kNRSXU-eASTzBY41m4-3" target="36kNRSXU-eASTzBY41m4-12">
          <mxGeometry relative="1" as="geometry" />
        </mxCell>
        <mxCell id="36kNRSXU-eASTzBY41m4-33" value="Tiene un Mesero" style="edgeLabel;html=1;align=center;verticalAlign=middle;resizable=0;points=[];" vertex="1" connectable="0" parent="36kNRSXU-eASTzBY41m4-32">
          <mxGeometry x="-0.1244" y="2" relative="1" as="geometry">
            <mxPoint as="offset" />
          </mxGeometry>
        </mxCell>
        <mxCell id="36kNRSXU-eASTzBY41m4-34" style="edgeStyle=orthogonalEdgeStyle;rounded=0;orthogonalLoop=1;jettySize=auto;html=1;" edge="1" parent="1" source="36kNRSXU-eASTzBY41m4-13" target="36kNRSXU-eASTzBY41m4-16">
          <mxGeometry relative="1" as="geometry" />
        </mxCell>
        <mxCell id="36kNRSXU-eASTzBY41m4-35" value="Tiene un&amp;nbsp;" style="edgeLabel;html=1;align=center;verticalAlign=middle;resizable=0;points=[];" vertex="1" connectable="0" parent="36kNRSXU-eASTzBY41m4-34">
          <mxGeometry x="-0.1964" y="-1" relative="1" as="geometry">
            <mxPoint as="offset" />
          </mxGeometry>
        </mxCell>
      </root>
    </mxGraphModel>
  </diagram>
</mxfile>
